<?xml version="1.0" encoding="utf-8"?>
<!-- Generator: Adobe Illustrator 26.0.1, SVG Export Plug-In . SVG Version: 6.00 Build 0)  -->
<svg version="1.1" id="Layer_1" xmlns="http://www.w3.org/2000/svg" xmlns:xlink="http://www.w3.org/1999/xlink" x="0px" y="0px"
	 viewBox="0 0 103.9 46" style="enable-background:new 0 0 103.9 46;" xml:space="preserve">
<style type="text/css">
	.st0{fill:url(#SVGID_1_);}
	.st1{fill:url(#SVGID_00000030458529557198375230000008326513147416607641_);}
	.st2{fill:url(#SVGID_00000060010243062922137480000014260412253461182633_);}
	.st3{fill:url(#SVGID_00000040570432586831328340000003098535819104967047_);}
	.st4{fill:#1D2E6A;}
	.st5{fill:url(#SVGID_00000000926268077738987350000014009624969333579672_);}
</style>
<g>
	
		<linearGradient id="SVGID_1_" gradientUnits="userSpaceOnUse" x1="15.3393" y1="46.0584" x2="13.5159" y2="18.8896" gradientTransform="matrix(1 0 0 -1 0 48)">
		<stop  offset="0" style="stop-color:#1D2E6A"/>
		<stop  offset="1" style="stop-color:#00D2E1"/>
	</linearGradient>
	<path class="st0" d="M3.9,4.4v34.5l3.8-5.8L7.6,28c0,0,12.2,1.1,14.2-1.6c0.9-0.7,1.7-1.8,2.4-2.7c0.9-1.3,1.3-2.8,1.3-4.4V4.4
		c0-1.4-1.1-2.6-2.6-2.6H6.5C5.1,1.9,3.9,3,3.9,4.4z"/>
	
		<linearGradient id="SVGID_00000071555058650918451310000011726188734867652022_" gradientUnits="userSpaceOnUse" x1="33.426" y1="25.2827" x2="37.417" y2="11.0609" gradientTransform="matrix(1 0 0 -1 0 48)">
		<stop  offset="0" style="stop-color:#1D2E6A"/>
		<stop  offset="1" style="stop-color:#00D2E1"/>
	</linearGradient>
	<path style="fill:url(#SVGID_00000071555058650918451310000011726188734867652022_);" d="M40.2,34c-0.6,0.3-1.3,0.6-2.1,0.7
		c-0.8,0.2-1.6,0.3-2.6,0.3c-1,0-1.8-0.2-2.7-0.5c-0.8-0.3-1.5-0.7-2.1-1.3c-0.6-0.6-1-1.2-1.4-2c-0.3-0.8-0.5-1.6-0.5-2.6
		c0-1,0.2-1.8,0.5-2.6c0.3-0.8,0.8-1.4,1.4-2c0.6-0.6,1.3-1,2.1-1.3c0.8-0.3,1.6-0.4,2.6-0.4c0.9,0,1.8,0.1,2.6,0.4
		c0.8,0.3,1.5,0.7,2,1.2l-1.8,2.1c-0.3-0.3-0.7-0.6-1.1-0.8c-0.5-0.2-1-0.3-1.6-0.3c-0.5,0-1,0.1-1.4,0.3c-0.4,0.2-0.8,0.4-1.1,0.8
		c-0.3,0.3-0.6,0.7-0.7,1.2c-0.2,0.5-0.3,0.9-0.3,1.5c0,0.6,0.1,1.1,0.2,1.5c0.2,0.5,0.4,0.9,0.7,1.2c0.3,0.3,0.7,0.6,1.2,0.8
		c0.5,0.2,1,0.3,1.6,0.3c0.3,0,0.7,0,1-0.1c0.3-0.1,0.6-0.1,0.8-0.3V30h-2.3v-2.3h4.9V34z"/>
	
		<linearGradient id="SVGID_00000067945641238599080920000003000141155895757490_" gradientUnits="userSpaceOnUse" x1="42.9648" y1="27.9619" x2="46.9559" y2="13.74" gradientTransform="matrix(1 0 0 -1 0 48)">
		<stop  offset="0" style="stop-color:#1D2E6A"/>
		<stop  offset="1" style="stop-color:#00D2E1"/>
	</linearGradient>
	<path style="fill:url(#SVGID_00000067945641238599080920000003000141155895757490_);" d="M47.7,29.5c0-0.4-0.1-0.8-0.4-1.1
		c-0.3-0.3-0.7-0.5-1.2-0.5c-0.3,0-0.5,0-0.7,0.1c-0.2,0.1-0.4,0.2-0.6,0.3c-0.2,0.1-0.3,0.3-0.4,0.5c-0.1,0.2-0.2,0.4-0.2,0.6H47.7
		z M50.3,30.6c0,0.1,0,0.2,0,0.3c0,0.1,0,0.2,0,0.3h-6.1c0,0.2,0.1,0.5,0.2,0.6c0.1,0.2,0.3,0.4,0.5,0.5c0.2,0.1,0.4,0.2,0.6,0.3
		c0.2,0.1,0.5,0.1,0.7,0.1c0.4,0,0.8-0.1,1.1-0.2c0.3-0.2,0.6-0.4,0.7-0.6l1.9,1.2c-0.4,0.6-0.9,1-1.6,1.3C47.8,34.8,47,35,46.2,35
		c-0.6,0-1.2-0.1-1.8-0.3c-0.6-0.2-1.1-0.5-1.5-0.9c-0.4-0.4-0.8-0.9-1-1.4c-0.2-0.6-0.4-1.2-0.4-1.9c0-0.7,0.1-1.3,0.4-1.9
		c0.2-0.6,0.6-1,1-1.4c0.4-0.4,0.9-0.7,1.4-0.9c0.6-0.2,1.2-0.3,1.8-0.3c0.6,0,1.2,0.1,1.7,0.3c0.5,0.2,1,0.5,1.3,0.9
		c0.4,0.4,0.7,0.9,0.9,1.4C50.2,29.2,50.3,29.9,50.3,30.6z"/>
	
		<linearGradient id="SVGID_00000094599252192542882560000003109179384951712676_" gradientUnits="userSpaceOnUse" x1="50.8317" y1="30.1696" x2="54.8228" y2="15.9477" gradientTransform="matrix(1 0 0 -1 0 48)">
		<stop  offset="0" style="stop-color:#1D2E6A"/>
		<stop  offset="1" style="stop-color:#00D2E1"/>
	</linearGradient>
	<path style="fill:url(#SVGID_00000094599252192542882560000003109179384951712676_);" d="M54.5,28.4v3.2c0,0.4,0.1,0.7,0.2,0.9
		c0.2,0.2,0.4,0.3,0.8,0.3c0.1,0,0.3,0,0.4,0c0.2,0,0.3-0.1,0.4-0.1l0,2c-0.2,0.1-0.4,0.1-0.7,0.2c-0.3,0.1-0.6,0.1-0.9,0.1
		c-0.6,0-1-0.1-1.4-0.2c-0.4-0.1-0.7-0.4-0.9-0.6c-0.2-0.3-0.4-0.6-0.5-0.9c-0.1-0.4-0.2-0.8-0.2-1.2v-3.6h-1.4v-2.1h1.3v-2.2h2.7
		v2.2h2v2.1H54.5z"/>
	<path class="st4" d="M66.8,30.5c0,0.6-0.1,1.2-0.3,1.7s-0.4,1-0.8,1.4c-0.3,0.4-0.8,0.7-1.3,1C64,34.8,63.4,35,62.8,35
		c-0.5,0-1-0.1-1.5-0.3c-0.5-0.2-0.8-0.5-1.1-0.9h0v5h-2.8V26.3h2.6v1h0.1c0.3-0.3,0.6-0.6,1.1-0.9c0.5-0.3,1-0.4,1.6-0.4
		c0.6,0,1.2,0.1,1.7,0.4c0.5,0.2,0.9,0.6,1.3,1c0.3,0.4,0.6,0.9,0.8,1.4C66.7,29.3,66.8,29.9,66.8,30.5z M64.1,30.5
		c0-0.3,0-0.5-0.1-0.8c-0.1-0.3-0.2-0.5-0.4-0.7c-0.2-0.2-0.4-0.4-0.6-0.5c-0.2-0.1-0.5-0.2-0.9-0.2c-0.3,0-0.6,0.1-0.8,0.2
		c-0.2,0.1-0.5,0.3-0.6,0.5c-0.2,0.2-0.3,0.4-0.4,0.7c-0.1,0.3-0.1,0.5-0.1,0.8c0,0.3,0,0.5,0.1,0.8c0.1,0.3,0.2,0.5,0.4,0.7
		c0.2,0.2,0.4,0.4,0.6,0.5c0.2,0.1,0.5,0.2,0.8,0.2c0.3,0,0.6-0.1,0.9-0.2c0.2-0.1,0.5-0.3,0.6-0.5c0.2-0.2,0.3-0.4,0.4-0.7
		C64.1,31,64.1,30.7,64.1,30.5z M73,31h-0.4c-0.3,0-0.6,0-0.9,0.1c-0.3,0-0.6,0.1-0.8,0.2c-0.2,0.1-0.4,0.2-0.6,0.4
		c-0.2,0.1-0.2,0.3-0.2,0.6c0,0.2,0,0.3,0.1,0.4c0.1,0.1,0.2,0.2,0.3,0.3c0.1,0.1,0.2,0.1,0.4,0.2c0.1,0,0.3,0,0.4,0
		c0.6,0,1-0.2,1.3-0.5c0.3-0.3,0.5-0.7,0.5-1.3V31z M67.9,27.4c0.5-0.5,1.1-0.8,1.7-1.1c0.7-0.2,1.3-0.4,2-0.4
		c0.7,0,1.3,0.1,1.8,0.3c0.5,0.2,0.9,0.4,1.2,0.8c0.3,0.4,0.5,0.8,0.7,1.4c0.1,0.6,0.2,1.2,0.2,2v4.3H73v-0.9H73
		c-0.2,0.4-0.5,0.6-1,0.8c-0.4,0.2-0.9,0.3-1.4,0.3c-0.3,0-0.7,0-1.1-0.1c-0.4-0.1-0.7-0.2-1-0.4c-0.3-0.2-0.5-0.5-0.7-0.8
		c-0.2-0.3-0.3-0.8-0.3-1.3c0-0.6,0.2-1.1,0.5-1.5c0.3-0.4,0.8-0.7,1.3-0.9c0.5-0.2,1.1-0.3,1.8-0.4c0.6-0.1,1.3-0.1,1.9-0.1v-0.1
		c0-0.4-0.1-0.7-0.4-0.9c-0.3-0.2-0.7-0.3-1.1-0.3c-0.4,0-0.8,0.1-1.2,0.3c-0.4,0.2-0.7,0.4-0.9,0.6L67.9,27.4z M80.2,23.6
		c0,0.2,0,0.4-0.1,0.6c-0.1,0.2-0.2,0.3-0.3,0.5c-0.1,0.1-0.3,0.2-0.5,0.3c-0.2,0.1-0.4,0.1-0.6,0.1c-0.5,0-0.8-0.1-1.1-0.4
		C77.1,24.4,77,24,77,23.6c0-0.2,0-0.4,0.1-0.6c0.1-0.2,0.2-0.4,0.3-0.5c0.1-0.1,0.3-0.2,0.5-0.3c0.2-0.1,0.4-0.1,0.6-0.1
		c0.2,0,0.4,0,0.6,0.1c0.2,0.1,0.4,0.2,0.5,0.3c0.1,0.1,0.3,0.3,0.3,0.5C80.1,23.2,80.2,23.4,80.2,23.6z M77.2,34.7v-8.4h2.8v8.4
		H77.2z M86.6,28.8c-0.2-0.2-0.5-0.4-0.8-0.5c-0.3-0.1-0.6-0.2-1-0.2c-0.3,0-0.5,0.1-0.7,0.2c-0.2,0.1-0.3,0.3-0.3,0.5
		c0,0.2,0.1,0.4,0.4,0.5c0.2,0.1,0.6,0.2,1.2,0.3c0.3,0.1,0.6,0.2,0.9,0.3c0.3,0.1,0.6,0.3,0.9,0.5c0.3,0.2,0.5,0.5,0.6,0.7
		c0.2,0.3,0.2,0.6,0.2,1.1c0,0.5-0.1,1-0.3,1.4c-0.2,0.4-0.5,0.7-0.8,0.9c-0.3,0.2-0.7,0.4-1.2,0.5c-0.4,0.1-0.9,0.2-1.3,0.2
		c-0.7,0-1.4-0.1-2-0.3c-0.7-0.2-1.2-0.6-1.6-1l1.6-1.6c0.2,0.3,0.6,0.5,0.9,0.7c0.4,0.2,0.7,0.3,1.2,0.3c0.2,0,0.4-0.1,0.7-0.2
		c0.2-0.1,0.3-0.3,0.3-0.6c0-0.3-0.1-0.5-0.4-0.6c-0.3-0.1-0.7-0.3-1.3-0.4c-0.3-0.1-0.6-0.2-0.9-0.3c-0.3-0.1-0.6-0.3-0.8-0.5
		c-0.2-0.2-0.4-0.4-0.6-0.7c-0.1-0.3-0.2-0.6-0.2-1c0-0.5,0.1-0.9,0.3-1.3c0.2-0.4,0.5-0.7,0.8-0.9c0.3-0.2,0.7-0.4,1.1-0.5
		c0.4-0.1,0.8-0.2,1.2-0.2c0.6,0,1.2,0.1,1.8,0.3c0.6,0.2,1.1,0.5,1.5,0.9L86.6,28.8z M94.1,31h-0.4c-0.3,0-0.6,0-0.9,0.1
		c-0.3,0-0.6,0.1-0.8,0.2c-0.2,0.1-0.4,0.2-0.6,0.4c-0.2,0.1-0.2,0.3-0.2,0.6c0,0.2,0,0.3,0.1,0.4c0.1,0.1,0.2,0.2,0.3,0.3
		c0.1,0.1,0.2,0.1,0.4,0.2c0.1,0,0.3,0,0.4,0c0.6,0,1-0.2,1.3-0.5c0.3-0.3,0.5-0.7,0.5-1.3V31z M89,27.4c0.5-0.5,1.1-0.8,1.7-1.1
		c0.7-0.2,1.3-0.4,2-0.4c0.7,0,1.3,0.1,1.8,0.3c0.5,0.2,0.9,0.4,1.2,0.8c0.3,0.4,0.5,0.8,0.7,1.4c0.1,0.6,0.2,1.2,0.2,2v4.3h-2.5
		v-0.9h-0.1c-0.2,0.4-0.5,0.6-1,0.8c-0.4,0.2-0.9,0.3-1.4,0.3c-0.3,0-0.7,0-1.1-0.1c-0.4-0.1-0.7-0.2-1-0.4
		c-0.3-0.2-0.5-0.5-0.7-0.8c-0.2-0.3-0.3-0.8-0.3-1.3c0-0.6,0.2-1.1,0.5-1.5c0.3-0.4,0.8-0.7,1.3-0.9c0.5-0.2,1.1-0.3,1.8-0.4
		c0.6-0.1,1.3-0.1,1.9-0.1v-0.1c0-0.4-0.1-0.7-0.4-0.9c-0.3-0.2-0.7-0.3-1.1-0.3c-0.4,0-0.8,0.1-1.2,0.3c-0.4,0.2-0.7,0.4-0.9,0.6
		L89,27.4z"/>
	<path class="st4" d="M99.7,34.3c0.1,0,0.1,0,0.2,0.1c0.1,0.1,0.1,0.1,0.1,0.2c0,0.1,0,0.1-0.1,0.2c-0.1,0.1-0.1,0.1-0.2,0.1
		c-0.1,0-0.1,0-0.2-0.1c-0.1-0.1-0.1-0.1-0.1-0.2c0-0.1,0-0.1,0.1-0.2C99.6,34.3,99.6,34.3,99.7,34.3z"/>
	<path class="st4" d="M98.5,32.5c-0.1,0-0.1,0.1-0.2,0.2c0,0.1-0.1,0.2-0.1,0.3c0,0.1,0,0.2,0.1,0.3c0,0.1,0.1,0.1,0.2,0.2
		c0.1,0.1,0.1,0.1,0.2,0.1c0.1,0,0.2,0,0.3,0c0.1,0,0.2,0,0.3,0c0.1,0,0.2-0.1,0.2-0.1c0.1-0.1,0.1-0.1,0.1-0.2
		c0-0.1,0.1-0.2,0.1-0.3c0-0.1,0-0.2-0.1-0.3c0-0.1-0.1-0.1-0.2-0.2l0.2-0.3c0.1,0.1,0.2,0.2,0.2,0.3c0.1,0.1,0.1,0.3,0.1,0.4
		c0,0.1,0,0.3-0.1,0.4c0,0.1-0.1,0.2-0.2,0.3c-0.1,0.1-0.2,0.2-0.3,0.2c-0.1,0.1-0.3,0.1-0.4,0.1c-0.2,0-0.3,0-0.4-0.1
		c-0.1-0.1-0.2-0.1-0.3-0.2c-0.1-0.1-0.2-0.2-0.2-0.3c0-0.1-0.1-0.3-0.1-0.4c0-0.1,0-0.3,0.1-0.4c0.1-0.1,0.1-0.2,0.2-0.3L98.5,32.5
		z"/>
	<path class="st4" d="M99,30c0.1,0,0.3,0,0.4,0.1c0.1,0.1,0.2,0.1,0.3,0.2c0.1,0.1,0.2,0.2,0.2,0.3c0,0.1,0.1,0.3,0.1,0.4
		c0,0.1,0,0.3-0.1,0.4c-0.1,0.1-0.1,0.2-0.2,0.3c-0.1,0.1-0.2,0.2-0.3,0.2c-0.1,0.1-0.3,0.1-0.4,0.1c-0.1,0-0.3,0-0.4-0.1
		c-0.1-0.1-0.2-0.1-0.3-0.2c-0.1-0.1-0.2-0.2-0.2-0.3C98,31.3,98,31.2,98,31c0-0.1,0-0.3,0.1-0.4c0-0.1,0.1-0.2,0.2-0.3
		c0.1-0.1,0.2-0.2,0.3-0.2C98.7,30,98.9,30,99,30z M99,30.4c-0.1,0-0.2,0-0.3,0c-0.1,0-0.2,0.1-0.2,0.1c-0.1,0.1-0.1,0.1-0.2,0.2
		c0,0.1-0.1,0.2-0.1,0.3c0,0.1,0,0.2,0.1,0.3c0,0.1,0.1,0.1,0.2,0.2c0.1,0.1,0.1,0.1,0.2,0.1c0.1,0,0.2,0,0.3,0c0.1,0,0.2,0,0.3,0
		c0.1,0,0.2-0.1,0.2-0.1s0.1-0.1,0.2-0.2c0-0.1,0.1-0.2,0.1-0.3c0-0.1,0-0.2-0.1-0.3c0-0.1-0.1-0.1-0.2-0.2s-0.1-0.1-0.2-0.1
		C99.2,30.4,99.1,30.4,99,30.4z"/>
	<path class="st4" d="M98.4,29.2c-0.1,0-0.2-0.1-0.3-0.2C98,28.9,98,28.8,98,28.6c0-0.1,0-0.2,0.1-0.3c0.1-0.1,0.2-0.2,0.3-0.2
		c-0.1-0.1-0.2-0.2-0.3-0.3C98,27.7,98,27.5,98,27.4c0-0.1,0-0.2,0.1-0.3c0-0.1,0.1-0.2,0.2-0.2c0.1-0.1,0.2-0.1,0.2-0.1
		c0.1,0,0.2,0,0.3,0h1.2v0.4h-1.1c-0.1,0-0.2,0-0.2,0c-0.1,0-0.1,0-0.2,0.1c-0.1,0-0.1,0.1-0.1,0.1c0,0.1,0,0.1,0,0.2
		c0,0.1,0,0.2,0.1,0.2c0,0.1,0.1,0.1,0.1,0.2c0.1,0,0.1,0.1,0.2,0.1c0.1,0,0.1,0,0.2,0h1v0.4h-1.1c-0.1,0-0.1,0-0.2,0
		c-0.1,0-0.1,0-0.2,0.1c0,0-0.1,0.1-0.1,0.1c0,0.1,0,0.1,0,0.2c0,0.1,0.1,0.3,0.2,0.3c0.1,0.1,0.3,0.1,0.5,0.1h1v0.4h-1.5
		c-0.1,0-0.1,0-0.2,0c-0.1,0-0.2,0-0.2,0v-0.4c0,0,0.1,0,0.2,0C98.3,29.3,98.3,29.3,98.4,29.2L98.4,29.2z"/>
	<path class="st4" d="M7.6,41.3V27.6c0,0,5.8,0.4,9.3,0.4c11.7-0.4,8.8-18.8,8.8-18.8s6.6,19.1-8,21.2H9.7v9.1h6.2
		c7.5-0.7,11.7-8.8,11.7-8.8s-1.7,6.7-9.7,9.9c-1.3,0.5-2.7,0.7-4.1,0.7H7.6z"/>
	<path class="st4" d="M12.7,43.8v-1.1c9.1,0.7,14.8-8.8,14.8-8.8S22,44.7,12.7,43.8z"/>
	
		<linearGradient id="SVGID_00000109735197697513122840000004213487474553282486_" gradientUnits="userSpaceOnUse" x1="14.7904" y1="16.1989" x2="14.6123" y2="11.6349" gradientTransform="matrix(1 0 0 -1 0 48)">
		<stop  offset="0" style="stop-color:#1D2E6A"/>
		<stop  offset="1" style="stop-color:#00D2E1"/>
	</linearGradient>
	<path style="fill:url(#SVGID_00000109735197697513122840000004213487474553282486_);" d="M14.7,38c1.7,0,3.1-1.4,3.1-3.1
		c0-1.7-1.4-3.1-3.1-3.1c-1.7,0-3.1,1.4-3.1,3.1C11.6,36.6,13,38,14.7,38z"/>
</g>
</svg>
