<svg width="375" height="812" viewBox="0 0 375 812" fill="none" xmlns="http://www.w3.org/2000/svg">
<rect width="375" height="812" fill="white"/>
<path d="M298.445 16.0391C298.445 15.4868 298.893 15.0391 299.445 15.0391H300.445C300.998 15.0391 301.445 15.4868 301.445 16.0391V24.0391C301.445 24.5913 300.998 25.0391 300.445 25.0391H299.445C298.893 25.0391 298.445 24.5913 298.445 24.0391V16.0391Z" fill="black"/>
<path d="M303.445 14.0391C303.445 13.4868 303.893 13.0391 304.445 13.0391H305.445C305.998 13.0391 306.445 13.4868 306.445 14.0391V24.0391C306.445 24.5913 305.998 25.0391 305.445 25.0391H304.445C303.893 25.0391 303.445 24.5913 303.445 24.0391V14.0391Z" fill="black"/>
<path d="M293.445 19.5391C293.445 18.9868 293.893 18.5391 294.445 18.5391H295.445C295.998 18.5391 296.445 18.9868 296.445 19.5391V24.0391C296.445 24.5913 295.998 25.0391 295.445 25.0391H294.445C293.893 25.0391 293.445 24.5913 293.445 24.0391V19.5391Z" fill="black"/>
<path d="M288.445 22.0391C288.445 21.4868 288.893 21.0391 289.445 21.0391H290.445C290.998 21.0391 291.445 21.4868 291.445 22.0391V24.0391C291.445 24.5913 290.998 25.0391 290.445 25.0391H289.445C288.893 25.0391 288.445 24.5913 288.445 24.0391V22.0391Z" fill="black"/>
<path fill-rule="evenodd" clip-rule="evenodd" d="M322.946 15.6266C325.412 15.6267 327.785 16.5941 329.572 18.3289C329.707 18.4628 329.922 18.4611 330.055 18.3251L331.341 16.9995C331.408 16.9305 331.446 16.8371 331.445 16.7398C331.445 16.6426 331.406 16.5496 331.338 16.4814C326.646 11.8916 319.244 11.8916 314.552 16.4814C314.485 16.5495 314.446 16.6425 314.445 16.7397C314.445 16.837 314.482 16.9305 314.549 16.9995L315.836 18.3251C315.969 18.4613 316.184 18.463 316.319 18.3289C318.106 16.594 320.479 15.6266 322.946 15.6266ZM322.981 19.6284C324.336 19.6284 325.643 20.1425 326.648 21.071C326.784 21.2028 326.998 21.2 327.13 21.0646L328.415 19.739C328.483 19.6695 328.521 19.5752 328.52 19.4772C328.519 19.3791 328.479 19.2856 328.41 19.2175C325.351 16.3129 320.614 16.3129 317.555 19.2175C317.486 19.2856 317.446 19.3792 317.445 19.4772C317.444 19.5753 317.482 19.6696 317.55 19.739L318.835 21.0646C318.967 21.2 319.181 21.2028 319.317 21.071C320.321 20.1431 321.627 19.629 322.981 19.6284ZM325.595 22.2158C325.597 22.3141 325.559 22.4088 325.49 22.4777L323.267 24.7679C323.202 24.8352 323.113 24.8731 323.02 24.8731C322.928 24.8731 322.839 24.8352 322.773 24.7679L320.55 22.4777C320.481 22.4088 320.443 22.314 320.445 22.2157C320.447 22.1174 320.489 22.0243 320.561 21.9584C321.98 20.7326 324.06 20.7326 325.48 21.9584C325.551 22.0244 325.593 22.1175 325.595 22.2158Z" fill="black"/>
<path opacity="0.35" d="M339.973 17.0391C339.973 15.1213 341.528 13.5666 343.445 13.5666H360.445C362.363 13.5666 363.918 15.1213 363.918 17.0391V22.0391C363.918 23.9568 362.363 25.5115 360.445 25.5115H343.445C341.528 25.5115 339.973 23.9568 339.973 22.0391V17.0391Z" stroke="black" stroke-width="1.05509"/>
<path opacity="0.4" d="M365.445 18.0391V22.2594C366.294 21.902 366.847 21.0705 366.847 20.1492C366.847 19.228 366.294 18.3965 365.445 18.0391Z" fill="black"/>
<path d="M341.445 17.0391C341.445 15.9345 342.341 15.0391 343.445 15.0391H360.445C361.55 15.0391 362.445 15.9345 362.445 17.0391V22.0391C362.445 23.1436 361.55 24.0391 360.445 24.0391H343.445C342.341 24.0391 341.445 23.1436 341.445 22.0391V17.0391Z" fill="black"/>
<path d="M23.9409 14.4844C21.4956 14.4844 19.7534 16.1562 19.7534 18.4453V18.4609C19.7534 20.6016 21.2691 22.1797 23.4331 22.1797C24.98 22.1797 25.9644 21.3906 26.3784 20.5H26.5347C26.5347 20.5859 26.5269 20.6719 26.5269 20.7578C26.4409 22.9141 25.6831 24.6641 23.8941 24.6641C22.9019 24.6641 22.2066 24.1484 21.9097 23.3594L21.8862 23.2812H19.9019L19.9175 23.3672C20.2769 25.0938 21.8237 26.3203 23.8941 26.3203C26.73 26.3203 28.4409 24.0703 28.4409 20.2734V20.2578C28.4409 16.1953 26.3472 14.4844 23.9409 14.4844ZM23.9331 20.6328C22.6519 20.6328 21.7222 19.6953 21.7222 18.3906V18.375C21.7222 17.1172 22.7144 16.125 23.9566 16.125C25.2066 16.125 26.1831 17.1328 26.1831 18.4219V18.4375C26.1831 19.7109 25.2066 20.6328 23.9331 20.6328ZM31.6678 18.7344C32.3866 18.7344 32.91 18.1875 32.91 17.5C32.91 16.8047 32.3866 16.2656 31.6678 16.2656C30.9569 16.2656 30.4256 16.8047 30.4256 17.5C30.4256 18.1875 30.9569 18.7344 31.6678 18.7344ZM31.6678 24.5312C32.3866 24.5312 32.91 23.9922 32.91 23.2969C32.91 22.6016 32.3866 22.0625 31.6678 22.0625C30.9569 22.0625 30.4256 22.6016 30.4256 23.2969C30.4256 23.9922 30.9569 24.5312 31.6678 24.5312ZM40.3634 26.0391H42.2931V23.875H43.8088V22.2109H42.2931V14.7656H39.4416C37.9103 17.0938 36.3088 19.6875 34.8478 22.2266V23.875H40.3634V26.0391ZM36.7228 22.2578V22.1406C37.8166 20.2266 39.1213 18.1406 40.2775 16.375H40.3947V22.2578H36.7228ZM48.1606 26.0391H50.1763V14.7656H48.1684L45.2231 16.8359V18.7344L48.0278 16.75H48.1606V26.0391Z" fill="black"/>
<path d="M96.7812 371.174V436.247L104.012 425.229L103.667 415.589C103.667 415.589 126.736 417.655 130.523 412.49C132.138 411.19 133.756 409.135 135.017 407.321C136.694 404.911 137.409 401.997 137.409 399.062V371.174C137.409 368.512 135.251 366.354 132.589 366.354H101.601C98.9393 366.354 96.7812 368.512 96.7812 371.174Z" fill="url(#paint0_linear_3191_1140)"/>
<path d="M165.37 426.953C164.261 427.528 162.961 427.998 161.468 428.36C159.996 428.722 158.386 428.904 156.638 428.904C154.825 428.904 153.151 428.616 151.616 428.04C150.102 427.464 148.79 426.654 147.682 425.609C146.594 424.565 145.741 423.317 145.123 421.867C144.504 420.396 144.195 418.764 144.195 416.973C144.195 415.161 144.504 413.519 145.123 412.048C145.763 410.576 146.637 409.328 147.746 408.305C148.854 407.261 150.155 406.46 151.648 405.906C153.141 405.352 154.75 405.074 156.478 405.074C158.269 405.074 159.932 405.352 161.468 405.906C163.003 406.439 164.25 407.164 165.21 408.081L161.755 412.015C161.222 411.397 160.519 410.896 159.644 410.512C158.77 410.107 157.779 409.904 156.669 409.904C155.71 409.904 154.825 410.086 154.015 410.448C153.204 410.79 152.501 411.28 151.904 411.92C151.307 412.538 150.838 413.284 150.497 414.158C150.177 415.011 150.017 415.949 150.017 416.973C150.017 418.018 150.166 418.978 150.464 419.852C150.763 420.726 151.201 421.483 151.776 422.123C152.373 422.741 153.098 423.232 153.951 423.594C154.825 423.935 155.817 424.106 156.926 424.106C157.565 424.106 158.173 424.063 158.749 423.978C159.325 423.872 159.858 423.711 160.348 423.499V419.372H156.03V414.958H165.37V426.953Z" fill="url(#paint1_linear_3191_1140)"/>
<path d="M179.56 418.54C179.56 417.708 179.294 416.994 178.761 416.397C178.248 415.8 177.47 415.501 176.426 415.501C175.914 415.501 175.444 415.587 175.018 415.757C174.592 415.906 174.219 416.12 173.898 416.397C173.579 416.674 173.323 417.004 173.131 417.389C172.939 417.751 172.832 418.134 172.811 418.54H179.56ZM184.39 420.555C184.39 420.768 184.39 420.982 184.39 421.195C184.39 421.408 184.379 421.611 184.358 421.803H172.811C172.854 422.25 172.982 422.655 173.195 423.018C173.429 423.38 173.717 423.7 174.059 423.977C174.421 424.233 174.816 424.436 175.242 424.585C175.689 424.735 176.148 424.809 176.618 424.809C177.449 424.809 178.153 424.66 178.728 424.362C179.304 424.041 179.774 423.636 180.136 423.146L183.782 425.449C183.035 426.536 182.044 427.379 180.807 427.976C179.592 428.552 178.174 428.84 176.554 428.84C175.359 428.84 174.229 428.658 173.163 428.296C172.097 427.912 171.158 427.368 170.348 426.664C169.559 425.939 168.93 425.054 168.461 424.01C168.013 422.964 167.789 421.77 167.789 420.427C167.789 419.126 168.013 417.953 168.461 416.909C168.909 415.843 169.517 414.947 170.284 414.222C171.052 413.475 171.958 412.9 173.003 412.495C174.048 412.089 175.178 411.887 176.393 411.887C177.567 411.887 178.643 412.089 179.624 412.495C180.605 412.878 181.447 413.444 182.151 414.19C182.854 414.937 183.398 415.843 183.782 416.909C184.188 417.975 184.39 419.19 184.39 420.555Z" fill="url(#paint2_linear_3191_1140)"/>
<path d="M192.379 416.333V422.41C192.379 423.157 192.518 423.722 192.795 424.105C193.094 424.468 193.616 424.649 194.362 424.649C194.618 424.649 194.885 424.628 195.162 424.585C195.461 424.543 195.706 424.479 195.898 424.393L195.962 428.232C195.599 428.36 195.141 428.466 194.587 428.552C194.032 428.658 193.477 428.712 192.923 428.712C191.857 428.712 190.961 428.583 190.236 428.328C189.511 428.05 188.925 427.667 188.477 427.176C188.05 426.664 187.741 426.067 187.55 425.385C187.358 424.681 187.262 423.903 187.262 423.05V416.333H184.703V412.398H187.23V408.209H192.379V412.398H196.122V416.333H192.379Z" fill="url(#paint3_linear_3191_1140)"/>
<path d="M215.548 420.3C215.548 421.409 215.377 422.476 215.036 423.499C214.695 424.522 214.194 425.429 213.533 426.218C212.893 426.985 212.104 427.604 211.166 428.073C210.228 428.542 209.162 428.776 207.967 428.776C206.987 428.776 206.059 428.585 205.185 428.201C204.311 427.796 203.628 427.252 203.138 426.569H203.074V436.005H197.828V412.4H202.818V414.351H202.913C203.404 413.711 204.076 413.157 204.929 412.688C205.803 412.198 206.827 411.952 208 411.952C209.151 411.952 210.195 412.176 211.134 412.624C212.072 413.071 212.861 413.679 213.501 414.447C214.162 415.215 214.663 416.11 215.004 417.134C215.367 418.136 215.548 419.192 215.548 420.3ZM210.463 420.3C210.463 419.789 210.377 419.287 210.207 418.797C210.057 418.307 209.823 417.88 209.503 417.518C209.204 417.134 208.82 416.825 208.351 416.59C207.882 416.355 207.338 416.238 206.72 416.238C206.123 416.238 205.59 416.355 205.12 416.59C204.652 416.825 204.247 417.134 203.905 417.518C203.586 417.901 203.329 418.339 203.138 418.829C202.967 419.32 202.882 419.82 202.882 420.333C202.882 420.844 202.967 421.345 203.138 421.836C203.329 422.326 203.586 422.763 203.905 423.147C204.247 423.531 204.652 423.84 205.12 424.075C205.59 424.309 206.123 424.426 206.72 424.426C207.338 424.426 207.882 424.309 208.351 424.075C208.82 423.84 209.204 423.531 209.503 423.147C209.823 422.763 210.057 422.326 210.207 421.836C210.377 421.324 210.463 420.812 210.463 420.3ZM227.294 421.388H226.622C226.047 421.388 225.461 421.42 224.863 421.484C224.287 421.527 223.765 421.622 223.296 421.772C222.848 421.921 222.475 422.145 222.177 422.443C221.878 422.721 221.728 423.094 221.728 423.563C221.728 423.862 221.792 424.117 221.92 424.331C222.07 424.544 222.251 424.714 222.464 424.842C222.677 424.97 222.923 425.066 223.2 425.13C223.477 425.173 223.744 425.194 223.999 425.194C225.066 425.194 225.876 424.906 226.431 424.331C227.006 423.734 227.294 422.934 227.294 421.932V421.388ZM217.666 414.575C218.605 413.679 219.692 413.008 220.929 412.56C222.187 412.112 223.466 411.888 224.767 411.888C226.111 411.888 227.241 412.059 228.158 412.4C229.096 412.719 229.853 413.232 230.429 413.936C231.004 414.617 231.42 415.492 231.676 416.558C231.953 417.603 232.092 418.85 232.092 420.3V428.329H227.294V426.633H227.198C226.793 427.295 226.175 427.806 225.343 428.169C224.532 428.531 223.647 428.712 222.688 428.712C222.048 428.712 221.387 428.628 220.705 428.457C220.023 428.286 219.394 428.009 218.818 427.625C218.263 427.241 217.805 426.73 217.442 426.09C217.08 425.45 216.898 424.661 216.898 423.723C216.898 422.571 217.208 421.644 217.827 420.94C218.466 420.236 219.276 419.693 220.257 419.309C221.259 418.925 222.368 418.669 223.583 418.541C224.799 418.414 225.982 418.35 227.134 418.35V418.093C227.134 417.304 226.857 416.729 226.303 416.366C225.748 415.982 225.066 415.791 224.255 415.791C223.509 415.791 222.784 415.95 222.08 416.27C221.398 416.59 220.812 416.974 220.321 417.422L217.666 414.575ZM240.741 407.314C240.741 407.72 240.656 408.103 240.485 408.466C240.336 408.807 240.122 409.106 239.846 409.361C239.589 409.617 239.27 409.82 238.886 409.969C238.523 410.119 238.14 410.193 237.734 410.193C236.882 410.193 236.167 409.915 235.591 409.361C235.016 408.785 234.728 408.103 234.728 407.314C234.728 406.93 234.802 406.568 234.952 406.227C235.101 405.864 235.314 405.555 235.591 405.299C235.869 405.044 236.188 404.84 236.551 404.692C236.913 404.521 237.308 404.436 237.734 404.436C238.14 404.436 238.523 404.51 238.886 404.659C239.27 404.809 239.589 405.011 239.846 405.267C240.122 405.523 240.336 405.832 240.485 406.195C240.656 406.536 240.741 406.909 240.741 407.314ZM235.111 428.329V412.4H240.357V428.329H235.111ZM252.924 417.102C252.498 416.697 251.997 416.355 251.421 416.079C250.845 415.801 250.237 415.663 249.598 415.663C249.107 415.663 248.649 415.758 248.222 415.95C247.817 416.143 247.614 416.473 247.614 416.942C247.614 417.39 247.839 417.71 248.286 417.901C248.755 418.093 249.502 418.307 250.525 418.541C251.122 418.669 251.72 418.85 252.317 419.085C252.935 419.32 253.49 419.629 253.98 420.013C254.47 420.396 254.865 420.866 255.164 421.42C255.462 421.974 255.611 422.635 255.611 423.403C255.611 424.405 255.409 425.258 255.003 425.962C254.598 426.644 254.065 427.199 253.404 427.625C252.764 428.051 252.039 428.36 251.229 428.553C250.419 428.745 249.609 428.84 248.798 428.84C247.497 428.84 246.218 428.638 244.96 428.233C243.723 427.806 242.689 427.188 241.858 426.378L244.8 423.275C245.269 423.787 245.845 424.213 246.527 424.555C247.209 424.895 247.935 425.066 248.702 425.066C249.129 425.066 249.545 424.97 249.949 424.778C250.376 424.565 250.589 424.203 250.589 423.691C250.589 423.201 250.334 422.838 249.822 422.603C249.31 422.369 248.51 422.124 247.423 421.868C246.869 421.74 246.314 421.569 245.759 421.356C245.205 421.143 244.704 420.855 244.256 420.492C243.83 420.13 243.478 419.682 243.2 419.149C242.924 418.616 242.785 417.976 242.785 417.23C242.785 416.27 242.988 415.46 243.393 414.799C243.797 414.117 244.32 413.562 244.96 413.135C245.6 412.709 246.303 412.4 247.071 412.208C247.86 411.995 248.638 411.888 249.406 411.888C250.6 411.888 251.762 412.08 252.893 412.464C254.044 412.826 255.014 413.381 255.803 414.127L252.924 417.102ZM267.084 421.388H266.412C265.836 421.388 265.25 421.42 264.653 421.484C264.077 421.527 263.555 421.622 263.085 421.772C262.638 421.921 262.264 422.145 261.966 422.443C261.667 422.721 261.518 423.094 261.518 423.563C261.518 423.862 261.582 424.117 261.71 424.331C261.86 424.544 262.041 424.714 262.254 424.842C262.467 424.97 262.712 425.066 262.99 425.13C263.267 425.173 263.534 425.194 263.789 425.194C264.856 425.194 265.665 424.906 266.22 424.331C266.796 423.734 267.084 422.934 267.084 421.932V421.388ZM257.456 414.575C258.394 413.679 259.482 413.008 260.719 412.56C261.977 412.112 263.256 411.888 264.557 411.888C265.9 411.888 267.03 412.059 267.948 412.4C268.885 412.719 269.643 413.232 270.219 413.936C270.794 414.617 271.21 415.492 271.466 416.558C271.743 417.603 271.882 418.85 271.882 420.3V428.329H267.084V426.633H266.988C266.583 427.295 265.964 427.806 265.132 428.169C264.322 428.531 263.437 428.712 262.478 428.712C261.838 428.712 261.177 428.628 260.495 428.457C259.812 428.286 259.183 428.009 258.607 427.625C258.053 427.241 257.594 426.73 257.232 426.09C256.87 425.45 256.688 424.661 256.688 423.723C256.688 422.571 256.997 421.644 257.616 420.94C258.255 420.236 259.066 419.693 260.047 419.309C261.049 418.925 262.158 418.669 263.373 418.541C264.589 418.414 265.772 418.35 266.924 418.35V418.093C266.924 417.304 266.647 416.729 266.092 416.366C265.537 415.982 264.856 415.791 264.045 415.791C263.299 415.791 262.574 415.95 261.87 416.27C261.187 416.59 260.601 416.974 260.11 417.422L257.456 414.575Z" fill="#1D2E6A"/>
<path d="M277.68 427.467C277.811 427.467 277.927 427.515 278.028 427.611C278.13 427.706 278.18 427.828 278.18 427.974C278.18 428.115 278.132 428.237 278.036 428.338C277.935 428.434 277.819 428.482 277.687 428.482C277.551 428.482 277.435 428.434 277.339 428.338C277.238 428.242 277.188 428.121 277.188 427.974C277.188 427.828 277.236 427.706 277.331 427.611C277.427 427.515 277.544 427.467 277.68 427.467Z" fill="#1D2E6A"/>
<path d="M275.453 424.089C275.336 424.165 275.241 424.278 275.165 424.43C275.084 424.581 275.044 424.743 275.044 424.915C275.044 425.102 275.079 425.269 275.15 425.415C275.221 425.556 275.316 425.678 275.438 425.778C275.554 425.879 275.69 425.958 275.847 426.013C276.003 426.064 276.168 426.089 276.339 426.089C276.51 426.089 276.675 426.064 276.831 426.013C276.988 425.958 277.127 425.879 277.248 425.778C277.364 425.678 277.457 425.554 277.528 425.407C277.599 425.261 277.634 425.094 277.634 424.907C277.634 424.725 277.599 424.561 277.528 424.415C277.457 424.263 277.362 424.14 277.24 424.044L277.672 423.566C277.849 423.718 277.987 423.907 278.089 424.135C278.184 424.362 278.233 424.619 278.233 424.907C278.233 425.185 278.187 425.443 278.096 425.68C278.005 425.912 277.879 426.114 277.718 426.286C277.551 426.458 277.351 426.594 277.119 426.695C276.887 426.791 276.627 426.839 276.339 426.839C276.056 426.839 275.798 426.791 275.566 426.695C275.334 426.599 275.135 426.465 274.968 426.293C274.801 426.122 274.673 425.92 274.582 425.687C274.491 425.45 274.445 425.195 274.445 424.922C274.445 424.67 274.496 424.42 274.597 424.172C274.698 423.92 274.844 423.721 275.036 423.574L275.453 424.089Z" fill="#1D2E6A"/>
<path d="M276.331 419.453C276.609 419.453 276.864 419.503 277.096 419.605C277.329 419.7 277.531 419.837 277.702 420.014C277.869 420.185 278.001 420.39 278.096 420.627C278.187 420.865 278.233 421.12 278.233 421.392C278.233 421.665 278.187 421.92 278.096 422.157C278.001 422.395 277.869 422.599 277.702 422.771C277.531 422.942 277.329 423.079 277.096 423.18C276.864 423.276 276.609 423.324 276.331 423.324C276.054 423.324 275.801 423.276 275.574 423.18C275.342 423.079 275.142 422.942 274.976 422.771C274.809 422.599 274.68 422.395 274.589 422.157C274.494 421.92 274.445 421.665 274.445 421.392C274.445 421.12 274.494 420.865 274.589 420.627C274.68 420.39 274.809 420.185 274.976 420.014C275.142 419.837 275.342 419.7 275.574 419.605C275.801 419.503 276.054 419.453 276.331 419.453ZM276.331 420.195C276.16 420.195 275.995 420.223 275.839 420.279C275.683 420.329 275.546 420.405 275.43 420.506C275.309 420.607 275.213 420.733 275.142 420.885C275.071 421.031 275.036 421.2 275.036 421.392C275.036 421.584 275.071 421.756 275.142 421.907C275.213 422.054 275.309 422.177 275.43 422.278C275.546 422.38 275.683 422.458 275.839 422.513C275.995 422.564 276.16 422.589 276.331 422.589C276.503 422.589 276.667 422.564 276.824 422.513C276.98 422.458 277.119 422.38 277.24 422.278C277.362 422.177 277.457 422.054 277.528 421.907C277.599 421.756 277.634 421.584 277.634 421.392C277.634 421.2 277.599 421.031 277.528 420.885C277.457 420.733 277.362 420.607 277.24 420.506C277.119 420.405 276.98 420.329 276.824 420.279C276.667 420.223 276.503 420.195 276.331 420.195Z" fill="#1D2E6A"/>
<path d="M275.135 417.995C274.942 417.904 274.781 417.76 274.65 417.563C274.513 417.362 274.445 417.124 274.445 416.851C274.445 416.609 274.501 416.392 274.612 416.2C274.723 416.003 274.907 415.849 275.165 415.738C274.933 415.617 274.756 415.447 274.635 415.23C274.509 415.014 274.445 414.776 274.445 414.518C274.445 414.286 274.486 414.087 274.567 413.92C274.642 413.753 274.746 413.614 274.877 413.503C275.009 413.393 275.162 413.311 275.339 413.261C275.516 413.205 275.705 413.178 275.907 413.178H278.134V413.89H276.142C275.995 413.89 275.857 413.902 275.725 413.928C275.594 413.953 275.478 413.996 275.377 414.056C275.276 414.117 275.195 414.198 275.135 414.299C275.074 414.4 275.044 414.529 275.044 414.685C275.044 414.847 275.079 414.985 275.15 415.102C275.215 415.218 275.304 415.314 275.415 415.39C275.521 415.46 275.642 415.513 275.778 415.549C275.915 415.579 276.054 415.594 276.195 415.594H278.134V416.306H275.998C275.857 416.306 275.728 416.318 275.612 416.344C275.495 416.369 275.397 416.412 275.316 416.473C275.23 416.533 275.165 416.612 275.119 416.708C275.069 416.803 275.044 416.922 275.044 417.064C275.044 417.326 275.153 417.546 275.369 417.723C275.582 417.894 275.867 417.98 276.225 417.98H278.134V418.692H275.316C275.221 418.692 275.097 418.695 274.945 418.7C274.794 418.704 274.66 418.712 274.544 418.722V418.048C274.635 418.038 274.738 418.03 274.854 418.026C274.965 418.021 275.059 418.018 275.135 418.018V417.995Z" fill="#1D2E6A"/>
<path d="M103.664 440.722V414.9C103.664 414.9 114.682 415.588 121.224 415.588C143.259 414.9 137.75 380.125 137.75 380.125C137.75 380.125 150.145 416.277 122.601 420.064H107.796V437.279H119.502C133.618 435.902 141.537 420.753 141.537 420.753C141.537 420.753 138.288 433.454 123.308 439.432C120.835 440.419 118.152 440.722 115.489 440.722H103.664Z" fill="#1D2E6A"/>
<path d="M113.305 445.544V443.478C130.52 444.855 141.193 426.951 141.193 426.951C141.193 426.951 130.864 447.265 113.305 445.544Z" fill="#1D2E6A"/>
<path d="M117.095 434.525C120.328 434.525 122.948 431.904 122.948 428.672C122.948 425.439 120.328 422.818 117.095 422.818C113.863 422.818 111.242 425.439 111.242 428.672C111.242 431.904 113.863 434.525 117.095 434.525Z" fill="url(#paint4_linear_3191_1140)"/>
<defs>
<linearGradient id="paint0_linear_3191_1140" x1="117.095" y1="366.354" x2="113.652" y2="417.655" gradientUnits="userSpaceOnUse">
<stop stop-color="#1D2E6A"/>
<stop offset="1" stop-color="#00D2E1"/>
</linearGradient>
<linearGradient id="paint1_linear_3191_1140" x1="162.541" y1="402.85" x2="170.077" y2="429.704" gradientUnits="userSpaceOnUse">
<stop stop-color="#1D2E6A"/>
<stop offset="1" stop-color="#00D2E1"/>
</linearGradient>
<linearGradient id="paint2_linear_3191_1140" x1="162.544" y1="402.849" x2="170.08" y2="429.704" gradientUnits="userSpaceOnUse">
<stop stop-color="#1D2E6A"/>
<stop offset="1" stop-color="#00D2E1"/>
</linearGradient>
<linearGradient id="paint3_linear_3191_1140" x1="162.547" y1="402.85" x2="170.083" y2="429.704" gradientUnits="userSpaceOnUse">
<stop stop-color="#1D2E6A"/>
<stop offset="1" stop-color="#00D2E1"/>
</linearGradient>
<linearGradient id="paint4_linear_3191_1140" x1="117.095" y1="422.818" x2="116.759" y2="431.436" gradientUnits="userSpaceOnUse">
<stop stop-color="#1D2E6A"/>
<stop offset="1" stop-color="#00D2E1"/>
</linearGradient>
</defs>
</svg>
